<svg id="Research" xmlns="http://www.w3.org/2000/svg" width="26.503" height="26.602" viewBox="0 0 26.503 26.602">
  <path id="Vector" d="M25.3,19.712l-2.76-2.827a4.107,4.107,0,0,0-4.533-.76l-1.2-1.2a9.333,9.333,0,1,0-1.88,1.88l1.187,1.187a4,4,0,0,0,.707,4.613l2.827,2.827a4.021,4.021,0,1,0,5.653-5.72ZM13.992,14.059a6.667,6.667,0,1,1,1.45-2.165,6.667,6.667,0,0,1-1.45,2.165Zm9.427,9.427a1.333,1.333,0,0,1-1.893,0L18.7,20.659a1.339,1.339,0,1,1,1.893-1.893l2.827,2.827a1.333,1.333,0,0,1,0,1.893Z" transform="translate(0 0)" fill="#df2024"/>
</svg>
